<?xml version="1.0" encoding="utf-8"?>
<!-- Generator: Adobe Illustrator 16.0.0, SVG Export Plug-In . SVG Version: 6.00 Build 0)  -->
<!DOCTYPE svg PUBLIC "-//W3C//DTD SVG 1.0//EN" "http://www.w3.org/TR/2001/REC-SVG-20010904/DTD/svg10.dtd">
<svg version="1.0" id="Layer_1" xmlns="http://www.w3.org/2000/svg" xmlns:xlink="http://www.w3.org/1999/xlink" x="0px" y="0px"
	 width="283.46px" height="283.46px" viewBox="0 0 283.46 283.46" enable-background="new 0 0 283.46 283.46" xml:space="preserve">
<g>
	<defs>
		<rect id="SVGID_1_" width="283.46" height="283.46"/>
	</defs>
	<clipPath id="SVGID_2_">
		<use xlink:href="#SVGID_1_"  overflow="visible"/>
	</clipPath>
	<path clip-path="url(#SVGID_2_)" fill-rule="evenodd" clip-rule="evenodd" fill="#EDC011" d="M283.465,141.732
		c0,78.276-63.456,141.731-141.732,141.731C63.455,283.464,0,220.009,0,141.732C0,63.455,63.455,0,141.732,0
		C220.009,0,283.465,63.455,283.465,141.732"/>
</g>
<g>
	<defs>
		<rect id="SVGID_3_" width="283.46" height="283.46"/>
	</defs>
	<clipPath id="SVGID_4_">
		<use xlink:href="#SVGID_3_"  overflow="visible"/>
	</clipPath>
	<path clip-path="url(#SVGID_4_)" fill-rule="evenodd" clip-rule="evenodd" d="M207.926,106.516
		c1.654,0.871,3.362,1.701,4.859,2.882c4.187,3.313,8.066,6.978,12.167,10.386c1.035,0.862,1.64,1.947,1.808,3.283
		c0.24,1.939,0.567,3.871,0.705,5.817c0.204,2.888-0.439,5.506-2.851,7.425c-0.736,0.587-1.425,1.243-2.181,1.809
		c-1.896,1.407-2.039,1.388-3.958-0.08c-0.267-0.204-0.572-0.363-0.834-0.572c-2.662-2.124-4.814-4.599-5.741-7.989
		c-0.204-0.75-0.637-1.526-1.614-1.57c-0.512-0.023-0.847-0.221-1.192-0.612c-1.984-2.243-4.015-2.705-6.662-1.584
		c-2.134,0.904-2.728,2.667-1.629,4.684c0.318,0.585,0.531,1.238,0.713,1.883c0.658,2.367,1.675,4.537,3.347,6.374
		c0.361,0.396,0.715,0.832,0.945,1.308c0.868,1.796,2.33,3.113,3.649,4.527c0.979,1.049,2.315,1.578,3.771,1.784
		c1.74,0.247,3.477,0.479,5.185,0.425c2.632,0.086,5.296-0.049,7.607-1.02c3.919-1.644,7.416-4.159,10.397-7.196
		c1.915-1.951,2.902-4.484,2.71-7.367c-0.244-3.673-0.362-7.344-1.298-10.946c-0.486-1.872-0.671-3.811-2.12-5.296
		c-0.359-0.369-0.561-0.914-0.769-1.407c-0.911-2.149-2.261-3.939-4.351-5.035c-2.715-1.422-5.239-3.177-8.228-4.138
		c-1.688-0.542-3.182-1.771-4.896-2.351c-3.375-1.143-5.386-3.763-7.202-6.532c-2.285-3.476-2.965-7.473-3.029-11.545
		c-0.02-1.197-0.168-2.669,0.862-3.601c1.483-1.347,3.043-2.631,4.94-3.417c1.946-0.806,3.945-0.461,5.356,1.085
		c1.892,2.073,3.321,4.409,3.901,7.206c0.302,1.451,0.852,2.873,0.969,4.333c0.293,3.562,2.676,5.703,5.017,7.91
		c0.416,0.395,1.055,0.544,1.521,0.399c1.629-0.495,3.414-0.071,4.987-0.982c0.433-0.249,0.764-0.636,1.276-0.813
		c1.831-0.641,2.016-0.88,1.891-2.705c-0.254-3.726-1.584-7.188-2.9-10.62c-0.825-2.15-2.582-3.723-4.027-5.497
		c-1.509-1.856-3.216-3.194-5.343-4.121c-2.499-1.09-5.136-1.578-7.833-1.837c-1.631-0.156-3.353-0.31-4.783,0.443
		c-2.346,1.235-4.698,1.384-7.201,0.879c-0.723-0.145-1.473-0.17-2.215-0.213c-2.33-0.133-2.772,0.202-3.329,2.447
		c-0.143,0.589-0.281,1.18-0.44,1.764c-1.974,7.115-1.633,14.141,0.929,21.044C202.196,101.302,204.192,104.548,207.926,106.516"/>
	<path clip-path="url(#SVGID_4_)" fill-rule="evenodd" clip-rule="evenodd" d="M107.197,95.739c0.543,9.16,0.803,18.34,1.156,27.512
		c0.178,4.655,0.353,9.316,0.921,13.937c0.33,2.684,0.905,5.336,2.865,7.547c1.092,1.229,2.181,1.926,3.758,1.956
		c2.836,0.061,5.661,0.07,8.47-0.5c1.668-0.339,3.174-1.116,4.804-1.543c2.543-0.661,5.076-1.346,7.618-2.02
		c1.181-0.587,2.404-1.11,3.532-1.785c0.944-0.568,1.427-1.496,1.664-2.609c0.262-1.24-0.471-0.968-1.136-0.894
		c0.115-0.589,1.011-1.45,0.146-1.715c-1.768-0.542-3.606-1.601-5.529-0.374c-2.508,0.521-5.022,1.021-7.46,1.829
		c-1.149,0.379-2.323,0.692-3.484,1.029c-0.727,0.211-1.054-0.02-1.26-0.806c-0.551-2.096-0.694-4.242-0.969-6.376
		c-0.367-2.87-0.141-5.767-0.503-8.645c-0.256-1.983-0.057-4.017-0.11-6.029c-0.024-0.95,0.376-1.101,1.236-0.981
		c2.136,0.306,4.287,0.369,6.45,0.368c2.414-0.003,4.823-0.359,7.248,0.011c1.706,0.261,2.07-0.223,2.065-2.01
		c0.001-0.653-0.139-1.285-0.479-1.713c-0.809-1.032-0.698-1.903,0.22-2.764c-2.245-0.918-4.437-1.42-6.778-1.447
		c-2.432-0.031-4.859,0.029-7.29,0.074c-0.729,0.014-1.526,0.258-2.177-0.173c-0.79-0.521,0.019-1.212-0.031-1.849
		c-0.228-2.729-0.335-5.474-0.384-8.215c-0.065-3.69-0.288-7.362-0.65-11.03c-0.207-2.112-0.566-4.212-0.863-6.355
		c0.309-0.051,0.507-0.124,0.694-0.106c3.696,0.382,7.416,0.141,11.112,0.436c1.388,0.112,2.847-0.369,3.387-1.373
		c0.627-1.165,1.475-1.769,2.461-2.289c-0.477-1.543-1.436-2.721-2.663-3.426c-1.196-0.684-2.656-0.894-4.117-0.82
		c-3.3,0.171-6.607,0.249-9.908,0.392c-0.672,0.029-1.356,0.102-2.005,0.269c-2.868,0.74-5.751,0.59-8.644,0.238
		c-2.211-0.267-4.366,0.044-6.666,0.533c0.648,1.267,1.459,2.261,1.583,3.585C106.04,83.653,106.841,89.683,107.197,95.739"/>
	<path clip-path="url(#SVGID_4_)" fill-rule="evenodd" clip-rule="evenodd" d="M153.314,77.395
		c0.043,5.128,0.208,10.253,0.368,15.379c0.248,8.096,0.182,16.197,0.865,24.277c0.584,6.907,1.035,13.817,2.882,20.566
		c0.639,2.334,2.712,3.813,3.065,6.198c1.197,0.954,2.285,2.145,3.883,2.373c2.8,0.394,5.587,0.622,8.431,0.096
		c3.909-0.72,7.758-1.676,11.626-2.563c1.287-0.294,2.599-0.692,3.425-1.935c0.205-0.309,0.633-0.502,0.997-0.669
		c1.377-0.622,1.717-1.994,2.124-3.194c0.244-0.713-0.728-1.454-0.53-2.396c0.047-0.227-0.761-0.011-1.06-0.199
		c-1.803-1.134-3.665-0.621-5.476-0.178c-3.206,0.783-6.369,1.743-9.568,2.551c-1.833,0.463-2.177,0.135-2.777-1.629
		c-1.082-3.188-1.8-6.455-2.296-9.777c-0.484-3.255-0.73-6.531-0.854-9.822c-0.034-0.978,0.137-1.445,1.274-1.478
		c3.088-0.088,6.152-0.735,9.273-0.281c1.517,0.222,2.007-0.203,2.675-1.531c0.48-0.957,0.605-2.029,1.165-2.973
		c0.49-0.833-0.202-1.951-1.188-2.038c-1.886-0.166-3.705-0.598-5.489-1.211c-0.397-0.139-0.813-0.238-1.172-0.012
		c-1.847,1.168-4.064,0.864-6.032,1.546c-0.621,0.217-1.022,0.023-1.053-0.743c-0.055-1.345-0.238-2.69-0.244-4.034
		c-0.027-6.875-0.389-13.728-1.229-20.554c-0.146-1.177-0.73-2.302-0.444-3.605c1.289,0.081,2.556,0.105,3.808,0.25
		c4.553,0.53,9.138,0.167,13.694,0.536c0.352,0.029,0.806-0.202,1.077-0.454c0.568-0.521,0.875-3.244,0.502-3.983
		c-1.651-3.272-3.111-3.688-6.026-3.638c-2.767,0.053-5.523,0.642-8.278,0.299c-2.327-0.29-4.562-0.1-6.797,0.522
		c-0.646,0.18-1.336,0.279-1.987,0.005c-1.593-0.668-3.304-0.69-4.966-0.851c-1.867-0.177-3.782-0.153-5.563,1.574
		C153.351,74.52,153.307,75.989,153.314,77.395"/>
	<path clip-path="url(#SVGID_4_)" fill-rule="evenodd" clip-rule="evenodd" d="M242.059,166.155
		c-0.397-0.654-1.54-0.267-2.002-1.043c0.186-0.5,0.98,0.032,1.072-0.675c-0.547-0.691-1.27-1.091-2.188-1.135
		c-1.038-0.456-1.933,0.249-2.899,0.373c-3.26,0.413-6.168,1.802-8.938,3.46c-2.949,1.763-5.729,3.774-8.256,6.119
		c-0.516,0.478-0.962,1.094-1.709,1.233c-0.611-0.759-0.559-1.598-0.588-2.392c-0.059-1.486-0.267-2.948-0.578-4.398
		c-0.154-0.717-0.568-1.463-0.475-2.14c0.182-1.274-0.368-2.224-0.984-3.178c-1.521-2.341-3.387-4.333-5.903-5.637
		c-2.561-1.973-6.281-2.126-8.995-0.369c-1.167,0.098-2.181,0.659-3.264,1.026c-1.667,0.565-3.286,1.101-4.848-0.484
		c-0.934-0.949-2.381-1.194-3.604-1.758c-1.236-0.574-2.363-0.279-3.412,0.475c-0.889,0.641-1.622,1.45-2.081,2.429
		c-0.33,0.706-0.788,1.208-1.403,1.651c-4.153,2.997-8.796,4.854-13.75,6.04c-1.258,0.302-1.428-0.407-1.752-1.285
		c-1.44-3.895-3.887-6.949-7.63-8.879c-0.121-0.108-0.254-0.184-0.388-0.245c-1.243-0.801-2.633-1.258-4.021-1.763
		c-1.095-0.395-2.074-0.984-3.242-0.345c-0.855-0.067-1.709-0.133-2.561-0.202c-0.206-0.501,0.395-0.852,0.139-1.554
		c-1.192,0.521-3.14-0.404-3.244,2.057c-0.008,0.171-0.433,0.135-0.485,0.205c-0.834,1.091-2.067,1.267-3.28,1.504
		c-2.59,0.01-2.924,0.21-3.361,2.697c-0.143,0.8-0.584,1.144-1.124,1.542c-4.632,3.403-9.808,5.6-15.378,6.917
		c-1.227,0.289-1.294,0.28-1.622-1.054c-0.262-1.064-0.611-2.063-1.305-2.926c-0.744-0.918-1.734-1.641-1.898-2.99
		c-0.063-0.556-0.768-0.903-1.338-1.148c-3.225-1.381-6.486-2.703-10-3.081c-1.703-0.184-3.501-0.265-5.073,0.66
		c-1.212,0.712-2.444,1.398-3.534,2.326c-1.069,0.909-2.066,1.782-2.634,3.14c-0.351,0.832-0.199,1.717-0.546,2.617
		c-0.464-0.029-0.925-0.062-1.382-0.086c-1.131-0.06-2.123-0.063-2.62,1.352c-0.219,0.617-0.598,1.312-1.16,1.854
		c-3.885,3.745-7.834,7.405-12.552,10.114c-2.771,1.591-5.723,2.688-8.896,3.17c-1.233,0.188-2.021-0.199-2.592-1.358
		c-0.935-1.899-1.686-3.877-1.733-5.97c-0.047-2.133,0.037-4.368,1.589-6.094c1.166-1.295,2.11-2.775,3.457-3.921
		c0.678-0.576,1.414-0.954,2.203-1.341c0.903-0.443,1.366-0.169,1.78,0.539c0.27,0.462,0.435,0.974,0.994,1.213
		c1.253,0.536,2.604,0.665,3.913,0.954c0.466,0.104,0.915-0.232,1.166-0.668c0.272-0.477-0.176-0.713-0.412-1.01
		c-0.25-0.318-0.462-0.681-0.756-0.948c-1.812-1.65-3.302-3.778-6.005-4.137c-1.766-0.849-3.654-1.221-5.588-1.347
		c-1.625-0.108-3.205,0.073-4.664,0.908c-3.855,2.209-6.343,5.474-7.468,9.75c-0.214,0.809-0.413,1.723,0.209,2.509
		c-0.018-0.201,0.04-0.346,0.13-0.466c-0.043,0.156-0.088,0.31-0.13,0.466c0.029,0.472-0.05,0.98,0.101,1.408
		c0.718,2.027-0.448,3.292-1.733,4.537c-0.971,0.939-1.914,1.901-2.875,2.85c-0.615,0.607-1.003,1.338-0.748,2.186
		c0.357,1.191,1.044,2.274,2.232,2.698c1.222,0.433,2.255-0.06,3.258-0.99c1.224-1.132,1.897-2.618,2.832-4.054
		c2.577,4.897,8.189,7.768,11.906,8.164c3.549,0.376,6.937-0.291,10.344-1.319c3.106-0.938,5.231-2.936,7.103-5.35
		c1.739-2.242,4.244-3.807,5.543-6.812c1.964,4.934,5.717,7.97,9.185,11.094c5.006,4.516,11.781,3.597,16.253-1.549
		c0.995-1.148,1.985-2.424,2.229-3.989c0.21-1.338,0.718-2.621,0.813-3.948c0.114-1.571,0.934-2.198,2.329-2.523
		c1.77-0.414,3.477-1.051,5.096-1.89c2.739-1.427,5.847-1.997,8.488-3.661c0.288-0.179,0.677-0.49,1.218-0.1
		c-0.077,1.135,0.143,2.331,0.381,3.512c1.207,5.928,3.611,11.027,9.668,13.491c3.722,1.266,7.389,0.29,11.082,0.438
		c1.852-0.38,3.809-0.611,5.055-2.238c0.979-1.271,2.012-2.493,2.742-3.98c0.603-1.228,0.758-2.837,1.785-3.643
		c1.128-0.882,2.797-0.845,4.219-1.248c3.566-1.011,7.015-2.307,10.245-4.171c0.789-0.456,1.425-1.197,2.456-1.474
		c0.019,0.382,0.071,0.642,0.041,0.892c-0.448,3.953-0.842,7.912-0.998,11.889c-0.182,4.589-0.342,9.176-0.479,13.765
		c-0.055,1.759-0.304,3.474-0.82,5.156c-0.487,3.368,0.779,6.002,3.459,7.962c0.858,0.628,1.751,0.603,2.761-0.112
		c1.393-0.99,2.197-2.253,2.662-3.823c0.351-1.161,0.486-2.379,0.8-3.542c0.635-2.354,0.185-4.807,0.814-7.15
		c0.381-1.421,0.727-2.865,0.904-4.322c0.594-4.806,1.599-9.533,2.56-14.273c0.518-2.571,1.317-5.066,2.126-7.569
		c0.948-2.933,2.941-4.147,5.741-4.645c1.059-0.187,1.684,0.129,2.105,1.049c0.486,1.053,0.678,2.169,0.801,3.314
		c0.261,2.384,0.437,4.752,1.165,7.101c1.16,3.734,2.94,7.017,5.711,9.768c1.864,1.888,4.133,3.276,6.635,3.881
		c2.33,0.563,4.72,0.463,6.69-1.626c1.854-1.964,3.667-3.911,5.013-6.263c1.917-1.146,3.358-2.879,5.145-4.193
		c2.58-1.156,5.15-2.312,5.088-5.802C241.578,167.566,242.513,166.895,242.059,166.155 M109.394,176.917
		c-0.898,1.112-1.98,1.988-3.214,2.716c-1.622,0.957-3.038,1.39-4.639-0.271c-0.96-0.996-2.059-1.845-2.936-2.977
		c-1.152-1.497-1.006-3.275-1.414-5.12c4.111,2.846,8.688,3.102,13.476,2.702C110.619,175.209,110.069,176.086,109.394,176.917
		 M111.448,168.113c-2.895,0.179-5.801,0.288-8.699,0.046c-2.067-0.173-2.795-1.552-2.139-3.544
		c0.756-2.298,2.652-3.074,4.644-3.737c0.692-0.228,1.413,0.113,1.799,0.679c1.147,1.678,2.626,3.07,3.818,4.696
		C111.241,166.758,111.786,167.289,111.448,168.113 M156.766,173.92c-0.331,4.478-6.47,4.356-9.087,3.894
		c-0.818-0.146-1.4-0.464-1.819-1.348c-1.141-2.423-1.775-4.924-1.789-7.596c-0.005-0.662-0.058-1.32-0.11-2.501
		c1.874,1.704,3.261,3.145,5.001,4.195c1.443,0.872,2.84,1.806,4.436,2.384C153.813,173.099,156.808,173.344,156.766,173.92
		 M157.834,163.972c-0.048,0.312,0.147,3.896-1.733,3.317c-1.784-0.123-1.459-0.499-1.459-0.499
		c-3.163,0.149-5.12-2.283-4.169-5.072c0.083-0.249,0.1-0.521,0.145-0.782c-0.058-0.471,0.144-0.757,0.59-0.912
		c1.297-0.463,1.03-0.376,2.592-0.941c-0.5,0.977,0.924,1.335,1.711,1.982C156.57,161.93,157.992,162.929,157.834,163.972"/>
	<path clip-path="url(#SVGID_4_)" fill-rule="evenodd" clip-rule="evenodd" d="M49.268,127.255
		c0.296,5.261-0.276,11.158,1.342,16.908c0.406,1.439,0.796,2.079,2.352,2.495c2.27,0.607,4.547,0.064,6.819,0.033
		c0.448-0.006,0.699-0.381,1.04-0.58c2.141-1.246,2.721-1.187,4.539,0.472c0.091,0.084,0.103,0.261,0.194,0.35
		c0.177,0.169,0.323,0.358,0.631,0.068c0.621-0.583,1.301-0.276,2.031-0.108c2.808,0.648,5.626,1.346,8.535,0.493
		c0.443-0.129,0.938-0.105,1.407-0.106c4.033-0.012,7.553-1.724,11.091-3.35c0.803-0.369,1.443-1.03,1.9-1.784
		c0.281-0.468,0.726-0.799,0.98-1.196c0.927-1.448,2.542-2.421,3.022-4.131c0.273-0.97,0.66-1.873,1.037-2.791
		c0.334-0.811,0.522-1.658,0.476-2.556c-0.066-1.344,0.013-2.684,0.128-4.032c0.221-2.693-0.009-5.384-0.356-8.052
		c-0.434-3.339-2.279-6.005-4.433-8.448c-1.685-1.91-3.512-3.671-5.893-4.769c-0.964-0.444-1.782-1.197-2.687-1.777
		c-0.862-0.556-0.841-1.201-0.413-2.046c1.423-2.803,2.072-5.771,1.87-8.931c-0.209-3.259-1.106-6.316-2.269-9.354
		c-0.858-2.248-1.904-4.31-3.619-5.992c-2.707-2.647-5.818-4.668-9.637-5.1c-6.331-0.715-12.643,0.014-18.95,0.585
		c-0.332,0.031-0.66,0.148-0.976,0.259c-0.336,0.117-0.662,0.363-0.536,0.733c0.732,2.158-0.175,4.276-0.126,6.423
		c0.081,3.635,0.129,7.292-0.121,10.917c-0.289,4.119-0.269,8.233-0.105,12.335C48.844,111.707,49.374,119.18,49.268,127.255
		 M79.274,121.509c0.341,2.57,0.969,5.125,1.246,7.733c0.181,1.673-0.391,2.825-1.762,3.769c-2.582,1.771-5.189,3.288-8.498,3.283
		c-2.076-0.002-4.152,0.44-6.233,0.615c-1.552,0.132-1.604,0.086-1.63-1.428c-0.06-3.474-0.081-6.947-0.095-10.42
		c-0.005-2.614-0.107-5.213-0.394-7.823c-0.356-3.244,0.06-6.535-0.498-9.952c2.912,0.528,5.203,1.773,7.767,1.972
		c1.357,0.104,2.379,0.918,3.407,1.667C76.197,113.566,78.661,116.827,79.274,121.509 M67.837,80.843
		c1.94,3.819,3.204,7.852,2.931,12.24c-0.114,1.875-0.566,3.463-2.503,4.215c-1.792,0.44-3.413,1.164-4.543,2.709l-0.004,0.005
		c-0.513,0.239-0.756,0.675-0.864,1.206c-1.152,0.745-1.164,0.736-1.289-0.407c-0.179-1.693,0.199-3.357,0.275-5.035
		c0.019-0.401,0.211-0.825,0.13-1.196c-0.719-3.323-0.202-6.684-0.397-10.015c-0.142-2.465-0.667-4.911-1.418-7.288
		C63.898,76.548,66.127,77.475,67.837,80.843"/>
	<path clip-path="url(#SVGID_4_)" fill-rule="evenodd" clip-rule="evenodd" d="M133.688,202.309c-0.134,0.833-0.282,1.665-0.4,2.5
		c-0.127,0.88-0.266,1.763-0.322,2.647c-0.063,0.977-0.032,1.957-0.05,2.938c-0.008,0.383-0.471,0.742-0.966,0.722
		c-0.386-0.017-0.771-0.076-1.149-0.134c-0.237-0.035-0.709-0.957-0.554-1.142c0.537-0.625,0.434-1.411,0.571-2.126
		c0.208-1.092,0.291-2.207,0.465-3.306c0.24-1.524,0.507-3.044,0.796-4.559c0.038-0.191,0.26-0.441,0.445-0.488
		c0.422-0.111,0.877-0.176,1.307-0.141c0.325,0.024,0.607,0.185,0.703,0.64c0.098,0.468,0.402,0.896,0.636,1.332
		c0.442,0.826,0.9,1.644,1.351,2.467c0.135,0.251,0.264,0.506,0.395,0.759c0.062,0.018,0.121,0.029,0.179,0.044
		c0.327-0.649,0.687-1.287,0.974-1.954c0.558-1.3,1.455-2.325,2.613-3.074c0.425-0.276,1.083-0.217,1.634-0.262
		c0.229-0.018,0.469,0.079,0.7,0.134c0.429,0.104,0.866,0.651,0.682,1.447c-0.206,0.887,0.031,1.734,0.043,2.6
		c0.021,1.194,0.61,2.346,0.246,3.571c-0.063,0.218,0.105,0.495,0.122,0.745c0.021,0.265-0.046,0.533-0.017,0.792
		c0.05,0.457,0.079,0.933,0.241,1.352c0.159,0.42,0.315,0.782-0.033,1.155c-0.275,0.297-1.238,0.158-1.479-0.087
		c-0.422-0.433-0.821-0.884-1.218-1.339c-0.058-0.069-0.065-0.195-0.067-0.296c-0.051-1.746-0.087-3.492-0.147-5.24
		c-0.009-0.331-0.105-0.656-0.181-1.084c-0.168,0.199-0.324,0.353-0.443,0.531c-0.417,0.63-0.856,1.249-1.222,1.907
		c-0.323,0.582-0.619,1.195-0.816,1.827c-0.222,0.724-0.883,1.165-1.582,0.879c-0.415-0.17-0.835-0.378-1.183-0.657
		c-0.258-0.209-0.464-0.535-0.594-0.85C134.79,205.153,134.247,203.732,133.688,202.309"/>
	<path clip-path="url(#SVGID_4_)" fill-rule="evenodd" clip-rule="evenodd" d="M120.825,205.507
		c0.855,0.967,1.678,1.932,2.538,2.854c0.269,0.29,0.655,0.466,0.971,0.716c0.291,0.226,0.535,0.519,0.842,0.712
		c0.412,0.265,0.114,0.551,0.002,0.732c-0.09,0.142-0.424,0.228-0.618,0.187c-1.521-0.305-2.596-1.265-3.533-2.442
		c-0.484-0.61-1.05-1.161-1.608-1.709c-0.081-0.084-0.326-0.063-0.473-0.015c-0.685,0.229-1.355,0.521-2.053,0.705
		c-0.229,0.062-0.524-0.135-0.827-0.226c-0.079,0.558-0.097,1.17-0.269,1.735c-0.238,0.786-0.557,1.555-0.918,2.291
		c-0.148,0.301-0.495,0.414-0.876,0.188c-0.294-0.173-0.629-0.27-0.955-0.382c-0.799-0.273-1.064-0.915-0.819-1.742
		c0.276-0.943,0.488-1.904,0.69-2.866c0.116-0.559,0.277-1.149,0.203-1.695c-0.108-0.801-0.064-1.555,0.107-2.332
		c0.06-0.279-0.033-0.63-0.155-0.903c-0.794-1.752,0.26-2.462,1.774-2.641c1.21-0.145,2.469-0.159,3.674,0.009
		c1.005,0.14,1.985,0.571,2.927,0.984c0.517,0.226,0.668,0.812,0.751,1.38c0.071,0.506,0.217,1.004,0.338,1.503
		c0.229,0.963-0.275,1.659-0.875,2.3C121.403,205.126,121.056,205.328,120.825,205.507 M116.216,200.087
		c-0.076,0.432-0.189,0.786-0.199,1.146c-0.021,0.92-0.012,1.842,0.018,2.762c0.005,0.146,0.225,0.415,0.31,0.402
		c0.372-0.058,0.768-0.138,1.086-0.322c0.588-0.338,1.184-0.697,1.672-1.158c0.433-0.403,1.135-0.73,0.828-1.587
		c-0.15-0.421-0.792-1.237-1.123-1.241C117.943,200.081,117.076,200.087,116.216,200.087"/>
	<path clip-path="url(#SVGID_4_)" fill-rule="evenodd" clip-rule="evenodd" d="M174.813,206.189
		c-0.409,0.073-0.823,0.127-1.229,0.231c-0.464,0.123-0.941,0.243-1.37,0.448c-0.647,0.311-0.839,0.311-1.366-0.212
		c-0.066-0.064-0.134-0.128-0.236-0.224c-0.22,0.949-0.329,1.845-0.2,2.811c0.08,0.58-0.202,1.251-0.454,1.818
		c-0.167,0.371-0.613,0.265-0.921,0.062c-0.358-0.237-0.725-0.488-1.021-0.795c-0.274-0.285-0.284-0.6-0.173-1.061
		c0.25-1.059,0.272-2.176,0.385-3.265c0.126-1.205-0.138-2.412,0.09-3.624c0.112-0.607,0.077-1.262-0.011-1.882
		c-0.116-0.852-0.048-1.08,0.663-1.552c0.815-0.542,1.721-0.873,2.676-0.855c1.076,0.022,2.137,0.279,3.106,0.791
		c0.853,0.449,1.762,0.828,2.361,1.632c0.215,0.289,0.401,0.64,0.476,0.986c0.23,1.1,0.043,2.128-0.681,3.024
		c-0.034,0.045-0.071,0.088-0.106,0.13c-0.225,0.269-0.635,0.545-0.626,0.807c0.007,0.279,0.434,0.53,0.642,0.821
		c0.879,1.223,1.898,2.306,3.094,3.229c0.171,0.133,0.331,0.461,0.288,0.654c-0.08,0.366-0.354,0.726-0.795,0.551
		c-0.635-0.253-1.245-0.581-1.843-0.92c-0.568-0.322-0.861-0.885-1.196-1.429C175.894,207.601,175.322,206.895,174.813,206.189
		 M170.865,204.011c0.35-0.088,0.491-0.153,0.633-0.154c1.501-0.014,2.39-1.004,3.226-2.048c0.324-0.401,0.213-1.222-0.165-1.438
		c-0.566-0.321-1.147-0.625-1.844-0.528c-0.561,0.076-1.136,0.126-1.327,0.779c-0.085,0.282-0.026,0.601-0.074,0.897
		C171.184,202.314,171.027,203.107,170.865,204.011"/>
	<path clip-path="url(#SVGID_4_)" fill-rule="evenodd" clip-rule="evenodd" d="M96.645,203.785c0.16,0.067,0.324,0.135,0.547,0.226
		c0.249-0.987,0.202-1.942-0.01-2.888c-0.032-0.136-0.349-0.207-0.601-0.349c0.089-0.156,0.237-0.413,0.409-0.711
		c-0.071-0.087-0.17-0.214-0.267-0.339c0.018-0.025,0.031-0.065,0.052-0.072c0.819-0.154,1.632-0.349,2.456-0.444
		c0.823-0.098,1.658-0.095,2.487-0.135c0.601-0.028,1.204-0.031,1.805-0.087c0.894-0.079,1.704,0.195,2.491,0.551
		c0.196,0.089,0.409,0.354,0.433,0.562c0.05,0.425-0.284,0.701-0.656,0.738c-0.611,0.064-1.24,0.072-1.852,0.01
		c-0.849-0.087-1.687-0.322-2.537-0.378c-0.498-0.032-1.025,0.125-1.514,0.273c-0.117,0.037-0.224,0.393-0.192,0.58
		c0.126,0.768,0.306,1.527,0.479,2.344c0.81-0.085,1.616-0.196,2.429-0.24c0.344-0.021,0.72,0.032,1.042,0.161
		c0.502,0.195,0.997,0.446,1.435,0.758c0.151,0.104,0.208,0.481,0.151,0.694c-0.05,0.192-0.299,0.451-0.479,0.474
		c-1.38,0.151-2.765,0.271-4.146,0.362c-0.638,0.044-0.421,0.592-0.445,0.836c-0.064,0.706,0.036,1.428,0.07,2.146
		c0.015,0.307,0.052,0.431,0.478,0.422c1.056-0.023,2.12,0.175,3.174,0.144c0.847-0.024,1.66,0.041,2.432,0.355
		c0.269,0.111,0.609,0.363,0.659,0.606c0.076,0.348-0.191,0.667-0.566,0.818c-0.797,0.327-1.6,0.117-2.411,0.044
		c-0.733-0.066-1.575-0.252-2.194,0.019c-1.671,0.73-3.756-0.345-4.531-1.564c-0.193-0.304-0.248-0.736-0.245-1.109
		c0.002-1.07-0.045-2.159,0.138-3.203C97.291,204.672,97.066,204.262,96.645,203.785"/>
	<path clip-path="url(#SVGID_4_)" fill-rule="evenodd" clip-rule="evenodd" d="M200.354,200.387
		c-0.128,1.457-0.267,3.048-0.408,4.671c1.435-1.273,2.863-2.538,4.284-3.812c0.074-0.064,0.155-0.189,0.143-0.271
		c-0.064-0.346,0.16-0.425,0.408-0.481c0.799-0.184,1.348-0.806,1.41-1.613c0.215,0.112,0.434,0.233,0.655,0.337
		c0.651,0.298,0.948,0.879,1.006,1.515c0.023,0.251-0.346,0.562-0.574,0.814c-0.691,0.771-1.524,1.369-2.471,1.798
		c-0.618,0.279-0.68,0.533-0.211,1.117c0.557,0.691,1.149,1.355,1.684,2.063c0.599,0.789,1.133,1.626,1.728,2.418
		c0.234,0.313,0.569,0.551,0.839,0.844c0.121,0.13,0.294,0.349,0.254,0.454c-0.059,0.157-0.27,0.312-0.448,0.355
		c-1.104,0.279-2.027,0.068-2.608-1.029c-0.085-0.161-0.29-0.275-0.461-0.378c-0.912-0.549-1.276-1.47-1.636-2.396
		c-0.273-0.715-0.543-1.431-0.867-2.286c-0.817,0.925-1.561,1.782-2.323,2.624c-0.169,0.188-0.4,0.32-0.688,0.545
		c0.072,0.52,0.164,1.165,0.25,1.81c0.033,0.235,0.096,0.479,0.066,0.708c-0.051,0.368,0.059,0.907-0.628,0.778
		c-0.781,0.673-1.222-0.121-1.71-0.451c-0.562-0.383-0.838-0.941-0.778-1.703c0.079-0.996-0.042-2.004,0.018-3.004
		c0.073-1.148,0.252-2.29,0.387-3.434c0.051-0.419,0.051-0.852,0.164-1.25c0.184-0.631,0.005-1.149-0.399-1.603
		c-0.249-0.278-0.05-0.381,0.145-0.371c0.662,0.043,1.326,0.126,1.983,0.227c0.128,0.019,0.252,0.167,0.341,0.283
		C200.043,199.848,200.148,200.053,200.354,200.387"/>
	<path clip-path="url(#SVGID_4_)" fill-rule="evenodd" clip-rule="evenodd" d="M162.996,210.393
		c-0.565,0.352-1.006,0.536-1.606,0.377c-0.719-0.188-1.99-1.295-2.086-2.015c-0.042-0.324-0.099-0.646-0.139-0.919
		c-2.021,0-4.027,0.001-5.858,0.003c-0.382,0.914-0.675,1.731-1.063,2.502c-0.18,0.352-0.52,0.644-1.015,0.55
		c-0.214-0.041-0.44-0.026-0.657-0.057c-0.817-0.113-1.367-0.49-1.339-1.444c0.437,0.312,0.687-0.02,0.873-0.332
		c0.309-0.509,0.569-1.051,0.824-1.591c0.668-1.432,1.465-2.823,1.942-4.314c0.472-1.459,1.313-2.597,2.306-3.683
		c0.653-0.713,1.448-0.547,2.235-0.336c0.669,0.179,0.719,0.772,0.918,1.319c0.403,1.094,0.907,2.154,1.403,3.211
		c0.311,0.661,0.674,1.302,1.043,1.937c0.422,0.716,0.949,1.376,1.291,2.125C162.46,208.586,162.699,209.515,162.996,210.393
		 M158.312,205.309c-0.666-1.53-1.368-3.145-2.125-4.889c-0.876,1.729-1.764,3.387-2.207,5.386
		C155.534,205.628,156.9,205.471,158.312,205.309"/>
	<path clip-path="url(#SVGID_4_)" fill-rule="evenodd" clip-rule="evenodd" d="M219.167,201.656c0,0.91,0.002,1.839,0.002,2.823
		c0.32-0.035,0.712-0.068,1.1-0.124c0.684-0.095,1.367-0.206,2.052-0.303c0.401-0.059,1.487,0.687,1.503,1.085
		c0.006,0.194-0.194,0.529-0.352,0.569c-0.68,0.161-1.376,0.283-2.075,0.332c-0.822,0.053-1.652,0.015-2.612,0.013
		c-0.057,0.872-0.112,1.725-0.169,2.628c0.895,0,1.665,0.009,2.434-0.004c1.076-0.016,2.155-0.059,3.233-0.066
		c0.414-0.004,0.947,0.126,0.942,0.54c-0.003,0.251-0.533,0.633-0.884,0.717c-0.755,0.179-1.545,0.198-2.32,0.296
		c-0.915,0.115-1.827,0.307-2.748,0.34c-0.456,0.017-0.902,0.354-1.399,0c-0.872-0.619-1.794-1.104-2.081-2.314
		c-0.274-1.154-0.161-2.272-0.085-3.412c0.087-1.265,0.229-2.533,0.216-3.8c-0.005-0.486-0.368-0.972-0.563-1.443
		c0.309,0.031,0.65,0.067,1.073,0.113c-0.093-0.192-0.154-0.321-0.219-0.451c0.038-0.009,0.099-0.033,0.105-0.023
		c0.342,0.579,0.916,0.425,1.413,0.411c0.766-0.019,1.529-0.157,2.299-0.172c0.821-0.016,1.652,0.024,2.476,0.091
		c0.536,0.042,1.064,0.169,1.593,0.274c0.1,0.02,0.228,0.1,0.26,0.185c0.103,0.269,0.198,0.547,0.242,0.827
		c0.086,0.611-0.51,1.032-1.235,0.996c-0.823-0.041-1.65,0.033-2.474,0.02C220.348,201.793,219.809,201.712,219.167,201.656"/>
	<path clip-path="url(#SVGID_4_)" fill-rule="evenodd" clip-rule="evenodd" d="M71.879,204.83c0.058-0.625,0.124-1.25,0.159-1.878
		c0.011-0.171-0.072-0.353-0.132-0.522c-0.433-1.19-0.007-1.938,1.238-2.127c0.405-0.061,0.818-0.085,1.229-0.091
		c0.892-0.016,1.194,0.473,0.916,1.522c-0.143,0.541-0.138,1.118-0.193,1.681c-0.039,0.38-0.079,0.762-0.094,1.146
		c-0.026,0.588,0.048,1.192-0.062,1.761c-0.242,1.261-0.563,2.483-1.379,3.559c-0.508,0.675-1.137,1.058-1.881,1.193
		c-1.049,0.19-2.119,0.171-3.127-0.299c-0.276-0.132-0.577-0.22-0.873-0.309c-1.265-0.387-1.942-1.307-2.419-2.491
		c-0.505-1.252-0.796-2.517-0.755-3.867c0.027-0.88-0.002-1.759,0-2.639c0-0.294-0.004-0.537-0.301-0.748
		c-0.269-0.19-0.257-0.541,0.136-0.601c0.599-0.089,1.212-0.103,1.82-0.113c0.141-0.003,0.403,0.124,0.412,0.214
		c0.067,0.666,0.123,1.338,0.108,2.011c-0.012,0.646-0.134,1.289-0.166,1.937c-0.031,0.602,0.044,1.214-0.024,1.811
		c-0.138,1.234,0.412,2.187,1.181,3.038c0.412,0.455,2.223,0.72,2.687,0.35c0.366-0.293,0.668-0.755,0.819-1.201
		c0.36-1.079,0.613-2.194,0.911-3.292C72.02,204.858,71.949,204.844,71.879,204.83"/>
	<path clip-path="url(#SVGID_4_)" fill-rule="evenodd" clip-rule="evenodd" d="M84.93,207.222c-0.267,1.357,0.157,2.785-0.955,4.057
		c-0.656-0.268-1.389-0.562-1.929-0.78c0.097-1.376,0.21-2.528,0.25-3.684c0.026-0.688-0.095-1.375-0.085-2.062
		c0.017-0.952,0.105-1.902,0.149-2.854c0.012-0.286,0.03-0.588-0.032-0.862c-0.266-1.148,0.357-1.758,1.354-1.866
		c1.192-0.128,2.303,0.069,3.425,0.349c1.028,0.255,2.051,0.579,2.889,1.244c0.937,0.743,1.157,2.583,0.638,3.651
		c-0.618,1.276-1.723,1.896-2.939,2.373c-0.445,0.178-0.984,0.124-1.479,0.197C85.778,207.05,85.345,207.144,84.93,207.222
		 M84.737,200.454c-0.069,1.113-0.142,2.191-0.202,3.273c-0.004,0.099,0.034,0.214,0.092,0.303c0.045,0.073,0.143,0.166,0.217,0.164
		c0.394-0.009,0.795-0.019,1.184-0.073c1.072-0.155,1.624-1.06,2.37-1.686c0.046-0.038,0.064-0.143,0.054-0.21
		c-0.094-0.555-0.273-1.077-0.836-1.306C86.682,200.539,85.711,200.337,84.737,200.454"/>
	<path clip-path="url(#SVGID_4_)" fill-rule="evenodd" clip-rule="evenodd" d="M52.604,198.351c1.026,0.18,2.017,0.409,3.02,0.518
		c0.849,0.094,1.653,0.141,2.197,0.955c0.218,0.327,0.602,0.544,0.912,0.813c-0.011,0.059-0.023,0.118-0.032,0.177
		c-0.296-0.017-0.595-0.009-0.885-0.056c-0.862-0.141-1.659-0.748-2.573-0.445c-0.673,0.224-1.259,0.616-1.544,1.329
		c-0.119,0.309-0.352,0.608-0.364,0.918c-0.028,0.722,0.645,0.897,1.129,1.087c1.157,0.46,2.183,1.108,3.122,1.908
		c1.292,1.105,0.891,3.021-0.029,4.08c-0.978,1.121-2.332,1.396-3.712,1.439c-0.425,0.015-0.887-0.365-1.292-0.627
		c-0.925-0.589-1.828-1.205-2.724-1.838c-0.163-0.115-0.219-0.368-0.358-0.531c-0.259-0.303-0.536-0.591-0.813-0.879
		c-0.188-0.195-0.345-0.356,0.052-0.51c0.105-0.041,0.14-0.242,0.227-0.354c0.256-0.325,0.558-0.454,0.945-0.215
		c0.231,0.142,0.465,0.278,0.75,0.447c0.302-0.241,0.513-0.034,0.795,0.284c0.525,0.585,1.064,1.194,1.713,1.621
		c1.248,0.818,2.803-0.114,2.804-1.611c0.002-0.942-0.503-1.477-1.542-1.879c-1.386-0.533-2.716-1.241-3.17-2.785
		c-0.169-0.576-0.082-1.326,0.144-1.895C51.666,199.573,52.215,198.947,52.604,198.351"/>
	<path clip-path="url(#SVGID_4_)" fill-rule="evenodd" clip-rule="evenodd" d="M236.151,201.468
		c0.163,0.739,0.381,1.452,0.467,2.181c0.128,1.115,0.138,2.246,0.259,3.364c0.052,0.493,0.377,0.971,0.365,1.452
		c-0.011,0.68,0.166,1.284,0.353,1.913c0.105,0.355-0.423,0.693-0.89,0.546c-1.618-0.509-3.359-1.969-3.286-4.042
		c0.054-1.558,0.141-3.115,0.208-4.674c0.009-0.196-0.019-0.394-0.026-0.595c-1.237,0.375-3.811-0.916-4.172-2.079
		c1.358,0.211,2.706,0.082,4.063-0.021c1.53-0.115,3.071-0.158,4.608-0.164c0.426-0.002,0.882,0.188,1.279,0.386
		c0.453,0.219,0.904,0.496,1.274,0.835c0.509,0.467,0.418,0.767-0.229,0.94c-0.236,0.063-0.533,0.097-0.745,0.006
		c-0.879-0.373-1.762-0.258-2.656-0.146C236.682,201.414,236.341,201.447,236.151,201.468"/>
</g>
</svg>
